<svg width="255" height="285" viewBox="0 0 255 285" fill="none" xmlns="http://www.w3.org/2000/svg">
<path d="M63 31.5L71.5 26L90 27.5L104.5 19.5H121.5L135.5 13.5H152L162.5 10.5L171.5 12.5L190 5L203.5 1.5L211.5 2.5L234.5 11.5L247 24.5L251.5 34.5L252.5 45L248 45.5L243.5 43L237.5 37L232.5 26L226 27.5L219.5 26.5L214.5 22L202 27.5L193.5 35.5L191.5 50L186 61L178.5 65.5L171.5 78L167 81H161L152 78L145 79L135.5 86.5L120.5 90L106.5 96L94 106L90 107.5L83 106.5L79 103L63 31.5Z" fill="white"/>
<path fill-rule="evenodd" clip-rule="evenodd" d="M175 102.5L159 99L159.401 111.5C163.23 122.176 176.211 142.275 197.5 137.264L214.5 118.5L201 99C213.983 100.623 236.312 96.7288 246.5 74.5C249.913 67.0523 252.201 57.5463 252 45.5C243.2 47.1 235.333 33.1667 232.5 26C223.828 30.8 216.887 25.3333 214.5 22C207.167 24.3333 192.5 31.1 192.5 39.5C192.5 50 187.5 63 178 65.5C176.514 70.7015 172.488 79.1055 166.25 81.1112L175 102.5Z" fill="#FFCFCF"/>
<path d="M74.4999 137.5L2 195.5L56 192L74.4999 177L86 171L74.4999 137.5Z" fill="#FFCFCF"/>
<path d="M81.9999 241C76.9999 248.833 68.4999 267 74.4999 277C77.3333 273.833 79.5 260.5 89 247.5C87.3333 258.333 85.7 280.8 92.5 284C98.1882 286.677 91.5936 261.508 98 251.5C97.8174 249.579 97.9237 250.765 97.9775 250.709C97.9755 250.452 97.9869 250.417 98.0015 250.463C98.0037 250.354 98.0035 250.204 98 250C98.1009 251.278 98.0399 250.586 98.0015 250.463C97.998 250.629 97.989 250.697 97.9775 250.709C97.9788 250.872 97.9854 251.124 98 251.5C98.9562 261.562 102.141 279.91 108.5 281.5C106.667 271 104.1 250 108.5 250C109.833 258.167 114.7 274.2 123.5 273C121.694 270.152 119.309 266.03 117.431 262.046C114.085 254.949 115.972 243.214 123.5 241V241H217C222.167 234.167 232.5 215.9 232.5 197.5L201.701 194L198.5 203C173.833 211.667 121.3 228.4 108.5 226C103.886 226.461 94.9687 227.868 88.5 232.5C85.604 234.574 83.5986 237.784 81.9999 241Z" fill="#FFCFCF"/>
<path d="M178.74 39.5C176.92 45.8103 173.149 54.3219 167.301 58.5C162.742 40.9 173.027 38.5 178.74 39.5Z" fill="#FFCFCF"/>
<path d="M246.5 74.5C248.033 71.1562 249.975 64.2173 250.93 60C254.775 62.5 257.5 69.5 246.5 74.5Z" fill="#FFCFCF"/>
<path d="M198.5 203H203.5M198.5 203C173.833 211.667 121.3 228.4 108.5 226C103.886 226.461 94.9687 227.868 88.5 232.5C85.604 234.574 83.5986 237.784 81.9999 241C76.9999 248.833 68.4999 267 74.4999 277C77.3333 273.833 79.5 260.5 89 247.5C87.3333 258.333 85.7 280.8 92.5 284C98.1882 286.677 91.5936 261.508 98 251.5M198.5 203L201.701 194L232.5 197.5C232.5 215.9 222.167 234.167 217 241H123.5V241C115.972 243.214 114.085 254.949 117.431 262.046C119.309 266.03 121.694 270.152 123.5 273C114.7 274.2 109.833 258.167 108.5 250C104.1 250 106.667 271 108.5 281.5C102.141 279.91 98.9562 261.562 98 251.5M166 80.5L166.25 81.1112M201 99L214.5 118.5L197.5 137.264C176.211 142.275 163.23 122.176 159.401 111.5L159 99L175 102.5L166.25 81.1112M201 99C194.333 98.5 181 96.6 181 93M201 99C213.983 100.623 236.312 96.7288 246.5 74.5M246.5 74.5C249.913 67.0523 252.201 57.5463 252 45.5C243.2 47.1 235.333 33.1667 232.5 26C223.828 30.8 216.887 25.3333 214.5 22C207.167 24.3333 192.5 31.1 192.5 39.5C192.5 50 187.5 63 178 65.5C176.514 70.7015 172.488 79.1055 166.25 81.1112M246.5 74.5C257.5 69.5 254.775 62.5 250.93 60C249.975 64.2173 248.033 71.1562 246.5 74.5ZM159 80.5C161.672 81.7333 164.093 81.8047 166.25 81.1112M98 251.5C97.8174 249.579 97.9237 250.765 97.9775 250.709M98 251.5C97.9854 251.124 97.9788 250.872 97.9775 250.709M97.9775 250.709C97.9755 250.452 97.9869 250.417 98.0015 250.463M97.9775 250.709C97.989 250.697 97.998 250.629 98.0015 250.463M98.0015 250.463C98.0037 250.354 98.0035 250.204 98 250C98.1009 251.278 98.0399 250.586 98.0015 250.463ZM74.4999 137.5L2 195.5L56 192L74.4999 177L86 171L74.4999 137.5ZM178.74 39.5C176.92 45.8103 173.149 54.3219 167.301 58.5C162.742 40.9 173.027 38.5 178.74 39.5Z" stroke="#FFB6B6"/>
<path d="M236 53.5C235.724 53.5 235.5 53.7239 235.5 54V54C235.5 54.2761 235.724 54.5 236 54.5H238.5C238.776 54.5 239 54.2761 239 54V54C239 53.7239 238.776 53.5 238.5 53.5H236Z" fill="black"/>
<path d="M199 49C198.724 49 198.5 49.2239 198.5 49.5V49.5C198.5 49.7761 198.724 50 199 50H201.5C201.776 50 202 49.7761 202 49.5V49.5C202 49.2239 201.776 49 201.5 49H199Z" fill="black"/>
<path d="M232.5 126L225 128.5L201.701 194L214.5 195.454L232.5 197.5H243V142C243 139.2 236 130.167 232.5 126Z" fill="black"/>
<path d="M104.5 177L134.5 94.5L74.4999 137.5L86 171V179.5L104.5 177Z" fill="black"/>
<path d="M159.401 111.5L161.5 177L197.5 137.264C176.211 142.275 163.23 122.176 159.401 111.5Z" fill="black"/>
<path d="M232.5 126L225 128.5L201.701 194L214.5 195.454L232.5 197.5H243M232.5 126L214.5 118.5L197.5 137.264M232.5 126C236 130.167 243 139.2 243 142M166 80.5L166.25 81.1112M211.5 2.99999C247.9 11.4 254.167 34.8333 252.5 45.5C243.7 47.1 235.333 33.1667 232.5 26C223.828 30.8 216.887 25.3333 214.5 22M211.5 2.99999L214.5 22M211.5 2.99999C209.833 0.499987 199.5 -1.00001 171.5 13C168.5 11.5 160.4 9.39998 152 13C145.807 12.5046 134.626 12.8559 128.141 16.6807C124.907 18.5882 120.402 20.3613 116.751 19.483C109.99 17.8562 101.106 18.1421 94.3971 25.2587C92.4925 27.2789 89.6557 28.3315 86.9607 27.6636C78.1841 25.4888 65.6855 24.6078 63 33M214.5 22C207.167 24.3333 192.5 31.1 192.5 39.5C192.5 50 187.5 63 178 65.5C176.514 70.7015 172.488 79.1055 166.25 81.1112M78.5 102.5C81.3333 106.333 89.2 111.7 98 102.5C106.8 93.3 127.333 88 136.5 86.5C145.3 73.7 155.167 77.1667 159 80.5C161.672 81.7332 164.093 81.8047 166.25 81.1112M218 51L223.5 68.5L214.5 70M134.5 94.5L159 99L159.401 111.5M134.5 94.5L104.5 177M134.5 94.5L74.4999 137.5L86 171V179.5L104.5 177M104.5 177L95.181 228.5M243 142C243 144.8 243 180.167 243 197.5M243 142V197.5M159.401 111.5L161.5 177L197.5 137.264M159.401 111.5C163.23 122.176 176.211 142.275 197.5 137.264M179.5 36.5C179.303 37.4146 179.049 38.4254 178.74 39.5C176.92 45.8103 173.149 54.3219 167.301 58.5C164.89 60.2224 162.126 61.2084 159 61C147 60.2 141.333 64.6667 140 67C136.833 68.1667 129.4 69.8 125 67M66.5 159L69.5 168M140 39.5C129.167 36.1667 104.6 33.4 93 49C81.4 64.6 70.5 59.1667 66.5 54.5M110.5 74.5C104.333 73.1667 91.4 72.1 89 78.5C86.6 84.9 78.3333 83.8333 74.4999 82.5M203.5 16C193.5 22.6667 170.6 35 159 31M126 147L122 160.5L148 169L153 156.5L126 147ZM239 54V54C239 54.2761 238.776 54.5 238.5 54.5H236C235.724 54.5 235.5 54.2761 235.5 54V54C235.5 53.7239 235.724 53.5 236 53.5H238.5C238.776 53.5 239 53.7239 239 54ZM202 49.5V49.5C202 49.7761 201.776 50 201.5 50H199C198.724 50 198.5 49.7761 198.5 49.5V49.5C198.5 49.2239 198.724 49 199 49H201.5C201.776 49 202 49.2239 202 49.5Z" stroke="black"/>
<rect x="198.531" y="79.2042" width="13.4396" height="0.560435" rx="0.280217" transform="rotate(36.1353 198.531 79.2042)" stroke="black" stroke-width="0.560435"/>
<path d="M126.5 147.5L152 156.5L149.5 164L124 155.5L126.5 147.5Z" fill="#D2ABFF"/>
</svg>
