<svg width="50" height="50" viewBox="0 0 50 50" fill="none" xmlns="http://www.w3.org/2000/svg">
<circle cx="25" cy="25" r="25" fill="#FF6D43"/>
<path d="M35.572 25.9613C35.572 25.4262 35.1381 24.9923 34.6028 24.9923C34.0674 24.9923 33.6335 25.4262 33.6335 25.9613C33.6335 30.7022 29.7768 34.5589 25.0359 34.5589C20.2952 34.5589 16.4385 30.7022 16.4385 25.9613C16.4385 25.4262 16.0046 24.9923 15.4693 24.9923C14.9339 24.9923 14.5 25.4262 14.5 25.9613C14.5 31.4443 18.7098 35.9613 24.0666 36.4523V39.0615H20.4698C19.9344 39.0615 19.5005 39.4955 19.5005 40.0308C19.5005 40.5661 19.9344 41 20.4698 41H29.6022C30.1373 41 30.5713 40.5661 30.5713 40.0308C30.5713 39.4955 30.1373 39.0615 29.6022 39.0615H26.0052V36.4523C31.3622 35.9616 35.572 31.4443 35.572 25.9613Z" fill="white"/>
<path d="M25.2058 32.1674C28.6279 32.1674 31.4119 29.3833 31.4119 25.9613V14.7058C31.4119 11.284 28.6279 8.5 25.2058 8.5C21.784 8.5 19 11.284 19 14.7058V25.9613C19 29.3833 21.784 32.1674 25.2058 32.1674V32.1674ZM20.9383 14.7058C20.9383 12.3527 22.8527 10.4385 25.2058 10.4385C27.5589 10.4385 29.4734 12.3527 29.4734 14.7058V25.9613C29.4734 28.3144 27.5589 30.2289 25.2058 30.2289C22.8527 30.2289 20.9383 28.3144 20.9383 25.9613V14.7058Z" fill="white"/>
<line x1="12" y1="20.0635" x2="12" y2="15.5635" stroke="white" stroke-width="3" stroke-linecap="round"/>
<line x1="7" y1="19.0635" x2="7" y2="17.0635" stroke="white" stroke-width="3" stroke-linecap="round"/>
<line x1="41.5" y1="19.0635" x2="41.5" y2="17.0635" stroke="white" stroke-width="3" stroke-linecap="round"/>
<line x1="36.5" y1="20" x2="36.5" y2="15.5" stroke="white" stroke-width="3" stroke-linecap="round"/>
</svg>
